<svg xmlns="http://www.w3.org/2000/svg" width="38.781" height="45.25" viewBox="0 0 38.781 45.25">
  <metadata><?xpacket begin="﻿" id="W5M0MpCehiHzreSzNTczkc9d"?>
<x:xmpmeta xmlns:x="adobe:ns:meta/" x:xmptk="Adobe XMP Core 5.6-c142 79.160924, 2017/07/13-01:06:39        ">
   <rdf:RDF xmlns:rdf="http://www.w3.org/1999/02/22-rdf-syntax-ns#">
      <rdf:Description rdf:about=""/>
   </rdf:RDF>
</x:xmpmeta>
                                                                                                    
                                                                                                    
                                                                                                    
                                                                                                    
                                                                                                    
                                                                                                    
                                                                                                    
                                                                                                    
                                                                                                    
                                                                                                    
                                                                                                    
                                                                                                    
                                                                                                    
                                                                                                    
                                                                                                    
                                                                                                    
                                                                                                    
                                                                                                    
                                                                                                    
                                                                                                    
                           
<?xpacket end="w"?></metadata>
<defs>
    <style>
      .cls-1 {
        fill: #fff;
        fill-rule: evenodd;
      }
    </style>
  </defs>
  <path id="icon" class="cls-1" d="M508.488,7834.63c5.279,0,8.654,5.07,8.654,5.07a10.485,10.485,0,0,0-5.149,8.8,9.777,9.777,0,0,0,6.468,9.24s-5.105,12.03-10.839,12.03c-3.223,0-3.44-1.84-7.723-1.84-3.721,0-4.976,1.84-7.81,1.84-5.409,0-12.4-11.73-12.4-21.27,0-9.9,7.075-13.87,11.51-13.87,3.894,0,5.517,2.28,8.654,2.28C502.5,7836.91,504.572,7834.63,508.488,7834.63Zm-0.909-10.1c0.779,4.85-3.656,10.86-8.957,10.66C497.843,7829.01,503.555,7824.85,507.579,7824.53Z" transform="translate(-479.688 -7824.53)"/>
</svg>
